<?xml version="1.0" encoding="UTF-8"?>
<svg width="1200pt" height="1200pt" version="1.1" viewBox="0 0 1200 1200" xmlns="http://www.w3.org/2000/svg">
 <path d="m892.18 1041.6h-598.32c-37.77 0-73.996-15.008-100.7-41.715s-41.715-62.934-41.715-100.7v-299.17h-35.191c-23.273 0-42.156-18.867-42.156-42.156v-164.57c0-23.273 18.879-42.156 42.156-42.156h35.191v-50.137c0-78.738 63.836-142.57 142.57-142.57h598.17c37.781 0 74.008 15.008 100.72 41.715 26.707 26.707 41.703 62.934 41.703 100.7v50.293h49.152c23.273 0 42.156 18.879 42.156 42.156v164.57c0 23.289-18.879 42.156-42.156 42.156h-49.152v299.17c0 37.77-14.992 73.996-41.703 100.7-26.707 26.707-62.934 41.715-100.72 41.715zm-113.49-464.39c-55.973 0-101.21-45.578-101.21-101.71s45.242-101.56 101.21-101.56c55.973 0 101.21 45.422 101.21 101.56s-45.242 101.71-101.21 101.71zm-371.34 0c-55.984 0-101.21-45.578-101.21-101.71s45.23-101.56 101.21-101.56c55.973 0 101.2 45.422 101.2 101.56s-45.23 101.71-101.2 101.71z" fill-rule="evenodd"/>
</svg>
